<?xml version="1.0" standalone="no"?>
<!DOCTYPE svg PUBLIC "-//W3C//DTD SVG 20010904//EN"
 "http://www.w3.org/TR/2001/REC-SVG-20010904/DTD/svg10.dtd">
<svg version="1.0" xmlns="http://www.w3.org/2000/svg"
 width="600.000000pt" height="600.000000pt" viewBox="0 0 600.000000 600.000000"
 preserveAspectRatio="xMidYMid meet">
<metadata>
Created by potrace 1.11, written by Peter Selinger 2001-2013
</metadata>
<g transform="translate(0.000000,600.000000) scale(0.100000,-0.100000)"
fill="#000000" stroke="none">
<path d="M4322 4878 c-9 -9 -51 -13 -130 -14 -91 -1 -133 -6 -189 -24 -40 -12
-73 -25 -73 -28 0 -4 -19 -16 -42 -27 -23 -11 -66 -44 -95 -74 -42 -42 -58
-52 -76 -47 -33 9 -127 -14 -167 -41 -19 -13 -39 -23 -45 -23 -6 0 -41 -29
-79 -65 -38 -36 -72 -65 -77 -65 -5 0 -9 -7 -9 -16 0 -9 -22 -49 -48 -88 -60
-88 -121 -215 -212 -441 -71 -177 -85 -207 -107 -230 -10 -11 -29 -42 -43 -68
-14 -27 -35 -53 -47 -58 -12 -4 -33 -30 -47 -57 -23 -45 -61 -88 -172 -195
-21 -21 -82 -81 -134 -134 -117 -118 -204 -184 -340 -257 -58 -32 -117 -68
-131 -82 -14 -14 -57 -36 -95 -49 -38 -12 -98 -37 -134 -54 -36 -17 -91 -36
-123 -42 -32 -7 -60 -16 -63 -20 -3 -5 -18 -9 -35 -9 -16 0 -29 -4 -29 -10 0
-5 -6 -10 -13 -10 -8 0 -34 -18 -58 -41 -24 -22 -62 -50 -84 -61 -22 -12 -55
-38 -73 -59 -19 -22 -38 -39 -44 -39 -7 0 -20 -7 -30 -17 -10 -9 -28 -21 -40
-27 -27 -14 -56 -63 -57 -97 -1 -14 -12 -36 -26 -49 -34 -32 -55 -76 -55 -117
0 -18 -4 -33 -10 -33 -13 0 -13 -289 0 -390 6 -41 10 -95 11 -120 2 -62 25
-154 55 -213 14 -27 27 -72 29 -102 5 -64 25 -108 71 -153 19 -18 34 -37 34
-42 0 -6 8 -18 18 -28 9 -10 42 -55 72 -100 63 -95 108 -127 191 -138 30 -4
73 -15 97 -26 24 -10 60 -18 80 -18 20 -1 66 -8 102 -16 153 -36 182 -38 297
-14 60 12 146 24 193 27 76 5 96 11 182 53 54 27 131 56 175 66 43 9 80 20 83
24 3 4 24 19 47 33 23 14 53 42 68 61 14 18 40 40 58 47 18 7 46 25 64 40 17
15 49 30 72 34 38 6 135 79 169 127 8 10 38 33 68 49 30 17 54 34 54 38 0 9
98 108 137 138 37 29 147 112 186 141 53 38 106 94 150 156 23 33 56 72 72 88
17 15 33 31 36 35 4 5 64 67 134 138 70 72 138 144 152 162 13 17 43 40 67 51
46 22 220 189 401 387 61 65 134 144 162 175 29 30 53 60 53 66 0 6 7 18 16
25 9 8 27 30 39 49 13 19 48 62 80 95 31 33 65 78 75 100 10 22 37 58 59 80
23 21 41 47 41 57 0 10 5 18 10 18 6 0 10 7 10 15 0 8 9 30 20 50 11 20 20 42
20 50 0 8 5 15 10 15 6 0 10 22 10 48 0 26 5 53 11 59 17 17 16 576 0 581 -6
2 -11 10 -11 18 0 29 -98 180 -150 231 -26 25 -46 34 -102 43 -38 7 -103 10
-144 8 -41 -2 -75 0 -75 4 -2 12 -4 19 -19 78 -11 43 -25 66 -62 102 -27 26
-48 56 -48 67 0 33 -156 141 -203 141 -12 0 -29 9 -37 20 -8 11 -22 20 -31 20
-9 0 -19 7 -23 15 -7 19 -86 21 -104 3z m-544 -467 c96 -50 152 -145 152 -261
0 -88 -22 -145 -78 -204 -57 -59 -122 -86 -212 -86 -90 0 -155 27 -212 86 -56
59 -78 116 -78 204 0 90 27 155 86 212 67 64 115 80 217 74 58 -4 100 -12 125
-25z m562 -202 c60 -27 117 -83 146 -144 19 -39 24 -67 24 -125 0 -88 -22
-145 -78 -204 -57 -59 -122 -86 -212 -86 -90 0 -155 27 -212 86 -56 59 -78
116 -78 204 0 90 27 155 86 212 59 56 116 78 204 78 54 0 88 -6 120 -21z
m-376 -905 c12 -32 -15 -98 -57 -138 -139 -132 -456 -161 -673 -62 -70 32
-129 91 -143 142 -21 79 -51 74 434 74 388 0 433 -2 439 -16z"/>
<path d="M3576 4209 c-36 -28 -38 -105 -3 -137 33 -31 105 -31 135 1 33 35 31
109 -4 136 -16 13 -41 21 -64 21 -23 0 -48 -8 -64 -21z"/>
<path d="M4156 4009 c-36 -28 -38 -105 -3 -137 33 -31 105 -31 135 1 33 35 31
109 -4 136 -16 13 -41 21 -64 21 -23 0 -48 -8 -64 -21z"/>
<path d="M20 2275 c0 -9 5 -15 11 -13 14 5 14 21 0 26 -6 2 -11 -4 -11 -13z"/>
<path d="M80 2186 c0 -9 7 -16 16 -16 17 0 14 22 -4 28 -7 2 -12 -3 -12 -12z"/>
<path d="M145 2120 c-3 -6 4 -14 17 -19 13 -5 30 -16 37 -25 7 -9 17 -16 22
-16 16 0 9 21 -16 45 -25 26 -50 32 -60 15z"/>
<path d="M255 2050 c3 -5 8 -10 11 -10 2 0 4 5 4 10 0 6 -5 10 -11 10 -5 0 -7
-4 -4 -10z"/>
</g>
</svg>
